# xmcd
#
# Track frame offsets:
#	150
#	2389
#	19790
#	42699
#	62630
#	83282
#	101863
#	118513
#	119337
#	138442
#	155271
#	174817
#	185805
#	204875
#
# Disc length: 2800 seconds
#
# Revision: 1
# Processed by: cddbd v1.5.1PL0 Copyright (c) Steve Scherf et al.
# Submitted via: audiograbber 1.80
#
DISCID=ab0aee0e
DTITLE=n.o.a. - fuori dal mazzo
DYEAR=1900
DGENRE=
TTITLE0=intro
TTITLE1=mu.si.ca
TTITLE2=io povero
TTITLE3=uan,ciù
TTITLE4=in volo
TTITLE5=gente
TTITLE6=tam tam
TTITLE7=skit
TTITLE8=dritto
TTITLE9=drink it up
TTITLE10=uno come...
TTITLE11=voglio una risposta
TTITLE12=fuori dal mazzo
TTITLE13=outro
EXTD=questo disco è il più bello del 2005
EXTT0=
EXTT1=
EXTT2=
EXTT3=
EXTT4=
EXTT5=
EXTT6=
EXTT7=
EXTT8=
EXTT9=
EXTT10=
EXTT11=
EXTT12=
EXTT13=
PLAYORDER=
